<mxfile host="app.diagrams.net" modified="2024-06-13T09:45:53.258Z" agent="Mozilla/5.0 (Windows NT 10.0; Win64; x64; rv:127.0) Gecko/20100101 Firefox/127.0" etag="2GkQsXiIJ_boZuQ91hAf" version="24.5.4" type="device">
  <diagram id="C5RBs43oDa-KdzZeNtuy" name="Page-1">
    <mxGraphModel dx="2153" dy="629" grid="1" gridSize="10" guides="1" tooltips="1" connect="1" arrows="1" fold="1" page="1" pageScale="1" pageWidth="827" pageHeight="1169" math="0" shadow="0">
      <root>
        <mxCell id="WIyWlLk6GJQsqaUBKTNV-0" />
        <mxCell id="WIyWlLk6GJQsqaUBKTNV-1" parent="WIyWlLk6GJQsqaUBKTNV-0" />
        <mxCell id="WIyWlLk6GJQsqaUBKTNV-2" value="" style="rounded=0;html=1;jettySize=auto;orthogonalLoop=1;fontSize=11;endArrow=block;endFill=0;endSize=8;strokeWidth=1;shadow=0;labelBackgroundColor=none;edgeStyle=orthogonalEdgeStyle;" parent="WIyWlLk6GJQsqaUBKTNV-1" source="WIyWlLk6GJQsqaUBKTNV-3" target="WIyWlLk6GJQsqaUBKTNV-6" edge="1">
          <mxGeometry relative="1" as="geometry" />
        </mxCell>
        <mxCell id="WIyWlLk6GJQsqaUBKTNV-3" value="&lt;div&gt;You made a commit&lt;/div&gt;" style="rounded=1;whiteSpace=wrap;html=1;fontSize=12;glass=0;strokeWidth=1;shadow=0;" parent="WIyWlLk6GJQsqaUBKTNV-1" vertex="1">
          <mxGeometry x="170" y="80" width="120" height="40" as="geometry" />
        </mxCell>
        <mxCell id="WIyWlLk6GJQsqaUBKTNV-5" value="" style="edgeStyle=orthogonalEdgeStyle;rounded=0;html=1;jettySize=auto;orthogonalLoop=1;fontSize=11;endArrow=block;endFill=0;endSize=8;strokeWidth=1;shadow=0;labelBackgroundColor=none;entryX=0.5;entryY=0;entryDx=0;entryDy=0;" parent="WIyWlLk6GJQsqaUBKTNV-1" source="WIyWlLk6GJQsqaUBKTNV-6" target="eSKBagSOQ1Uar_kstjLn-0" edge="1">
          <mxGeometry y="10" relative="1" as="geometry">
            <mxPoint as="offset" />
            <mxPoint x="430" y="360" as="targetPoint" />
          </mxGeometry>
        </mxCell>
        <mxCell id="eSKBagSOQ1Uar_kstjLn-17" value="&lt;font style=&quot;font-size: 24px;&quot;&gt;No&lt;/font&gt;" style="edgeLabel;html=1;align=center;verticalAlign=middle;resizable=0;points=[];" vertex="1" connectable="0" parent="WIyWlLk6GJQsqaUBKTNV-5">
          <mxGeometry x="-0.0148" relative="1" as="geometry">
            <mxPoint x="-551" as="offset" />
          </mxGeometry>
        </mxCell>
        <mxCell id="eSKBagSOQ1Uar_kstjLn-5" style="edgeStyle=orthogonalEdgeStyle;rounded=0;orthogonalLoop=1;jettySize=auto;html=1;entryX=0.5;entryY=0;entryDx=0;entryDy=0;exitX=0;exitY=0.5;exitDx=0;exitDy=0;" edge="1" parent="WIyWlLk6GJQsqaUBKTNV-1" source="WIyWlLk6GJQsqaUBKTNV-6" target="eSKBagSOQ1Uar_kstjLn-4">
          <mxGeometry relative="1" as="geometry" />
        </mxCell>
        <mxCell id="eSKBagSOQ1Uar_kstjLn-6" value="&lt;font style=&quot;font-size: 24px;&quot;&gt;Yes&lt;/font&gt;" style="edgeLabel;html=1;align=center;verticalAlign=middle;resizable=0;points=[];" vertex="1" connectable="0" parent="eSKBagSOQ1Uar_kstjLn-5">
          <mxGeometry x="0.3103" y="3" relative="1" as="geometry">
            <mxPoint x="277" y="-3" as="offset" />
          </mxGeometry>
        </mxCell>
        <mxCell id="WIyWlLk6GJQsqaUBKTNV-6" value="&lt;div&gt;Does it affect a wordlist?&lt;/div&gt;" style="rhombus;whiteSpace=wrap;html=1;shadow=0;fontFamily=Helvetica;fontSize=12;align=center;strokeWidth=1;spacing=6;spacingTop=-4;" parent="WIyWlLk6GJQsqaUBKTNV-1" vertex="1">
          <mxGeometry x="170" y="170" width="120" height="120" as="geometry" />
        </mxCell>
        <mxCell id="WIyWlLk6GJQsqaUBKTNV-8" value="No" style="rounded=0;html=1;jettySize=auto;orthogonalLoop=1;fontSize=11;endArrow=block;endFill=0;endSize=8;strokeWidth=1;shadow=0;labelBackgroundColor=none;edgeStyle=orthogonalEdgeStyle;" parent="WIyWlLk6GJQsqaUBKTNV-1" target="WIyWlLk6GJQsqaUBKTNV-11" edge="1">
          <mxGeometry x="0.3333" y="20" relative="1" as="geometry">
            <mxPoint as="offset" />
            <mxPoint x="220" y="370" as="sourcePoint" />
          </mxGeometry>
        </mxCell>
        <mxCell id="WIyWlLk6GJQsqaUBKTNV-9" value="Yes" style="edgeStyle=orthogonalEdgeStyle;rounded=0;html=1;jettySize=auto;orthogonalLoop=1;fontSize=11;endArrow=block;endFill=0;endSize=8;strokeWidth=1;shadow=0;labelBackgroundColor=none;" parent="WIyWlLk6GJQsqaUBKTNV-1" target="WIyWlLk6GJQsqaUBKTNV-12" edge="1">
          <mxGeometry y="10" relative="1" as="geometry">
            <mxPoint as="offset" />
            <mxPoint x="270" y="330" as="sourcePoint" />
          </mxGeometry>
        </mxCell>
        <mxCell id="eSKBagSOQ1Uar_kstjLn-2" style="edgeStyle=orthogonalEdgeStyle;rounded=0;orthogonalLoop=1;jettySize=auto;html=1;entryX=0.5;entryY=0;entryDx=0;entryDy=0;exitX=1;exitY=0.5;exitDx=0;exitDy=0;" edge="1" parent="WIyWlLk6GJQsqaUBKTNV-1" source="eSKBagSOQ1Uar_kstjLn-0" target="eSKBagSOQ1Uar_kstjLn-1">
          <mxGeometry relative="1" as="geometry" />
        </mxCell>
        <mxCell id="eSKBagSOQ1Uar_kstjLn-24" value="&lt;font style=&quot;font-size: 24px;&quot;&gt;No&lt;/font&gt;" style="edgeLabel;html=1;align=center;verticalAlign=middle;resizable=0;points=[];" vertex="1" connectable="0" parent="eSKBagSOQ1Uar_kstjLn-2">
          <mxGeometry x="-0.4519" y="-2" relative="1" as="geometry">
            <mxPoint x="-393" y="-2" as="offset" />
          </mxGeometry>
        </mxCell>
        <mxCell id="eSKBagSOQ1Uar_kstjLn-44" style="edgeStyle=orthogonalEdgeStyle;rounded=0;orthogonalLoop=1;jettySize=auto;html=1;entryX=0.5;entryY=0;entryDx=0;entryDy=0;exitX=0;exitY=0.5;exitDx=0;exitDy=0;" edge="1" parent="WIyWlLk6GJQsqaUBKTNV-1" source="eSKBagSOQ1Uar_kstjLn-0" target="eSKBagSOQ1Uar_kstjLn-43">
          <mxGeometry relative="1" as="geometry">
            <mxPoint x="830" y="400" as="sourcePoint" />
          </mxGeometry>
        </mxCell>
        <mxCell id="eSKBagSOQ1Uar_kstjLn-45" value="&lt;font style=&quot;font-size: 24px;&quot;&gt;Yes&lt;/font&gt;" style="edgeLabel;html=1;align=center;verticalAlign=middle;resizable=0;points=[];" vertex="1" connectable="0" parent="eSKBagSOQ1Uar_kstjLn-44">
          <mxGeometry x="-0.3067" y="-2" relative="1" as="geometry">
            <mxPoint x="12" y="2" as="offset" />
          </mxGeometry>
        </mxCell>
        <mxCell id="eSKBagSOQ1Uar_kstjLn-0" value="&lt;div&gt;Does it affect a README file?&lt;br&gt;&lt;/div&gt;" style="rhombus;whiteSpace=wrap;html=1;" vertex="1" parent="WIyWlLk6GJQsqaUBKTNV-1">
          <mxGeometry x="1370" y="330" width="120" height="120" as="geometry" />
        </mxCell>
        <mxCell id="eSKBagSOQ1Uar_kstjLn-85" style="edgeStyle=orthogonalEdgeStyle;rounded=0;orthogonalLoop=1;jettySize=auto;html=1;entryX=0.5;entryY=0;entryDx=0;entryDy=0;exitX=1;exitY=0.5;exitDx=0;exitDy=0;" edge="1" parent="WIyWlLk6GJQsqaUBKTNV-1" source="eSKBagSOQ1Uar_kstjLn-1" target="eSKBagSOQ1Uar_kstjLn-83">
          <mxGeometry relative="1" as="geometry" />
        </mxCell>
        <mxCell id="eSKBagSOQ1Uar_kstjLn-86" value="&lt;font style=&quot;font-size: 24px;&quot;&gt;No&lt;/font&gt;" style="edgeLabel;html=1;align=center;verticalAlign=middle;resizable=0;points=[];" vertex="1" connectable="0" parent="eSKBagSOQ1Uar_kstjLn-85">
          <mxGeometry x="-0.6205" y="2" relative="1" as="geometry">
            <mxPoint as="offset" />
          </mxGeometry>
        </mxCell>
        <mxCell id="eSKBagSOQ1Uar_kstjLn-88" style="edgeStyle=orthogonalEdgeStyle;rounded=0;orthogonalLoop=1;jettySize=auto;html=1;entryX=0.5;entryY=0;entryDx=0;entryDy=0;" edge="1" parent="WIyWlLk6GJQsqaUBKTNV-1" source="eSKBagSOQ1Uar_kstjLn-1" target="eSKBagSOQ1Uar_kstjLn-87">
          <mxGeometry relative="1" as="geometry" />
        </mxCell>
        <mxCell id="eSKBagSOQ1Uar_kstjLn-89" value="&lt;font style=&quot;font-size: 24px;&quot;&gt;Yes&lt;/font&gt;" style="edgeLabel;html=1;align=center;verticalAlign=middle;resizable=0;points=[];" vertex="1" connectable="0" parent="eSKBagSOQ1Uar_kstjLn-88">
          <mxGeometry x="-0.2082" y="-1" relative="1" as="geometry">
            <mxPoint as="offset" />
          </mxGeometry>
        </mxCell>
        <mxCell id="eSKBagSOQ1Uar_kstjLn-1" value="Does it affect the CICD pipelines? (github actions)" style="rhombus;whiteSpace=wrap;html=1;" vertex="1" parent="WIyWlLk6GJQsqaUBKTNV-1">
          <mxGeometry x="2920" y="450" width="180" height="190" as="geometry" />
        </mxCell>
        <mxCell id="eSKBagSOQ1Uar_kstjLn-7" value="" style="edgeStyle=orthogonalEdgeStyle;rounded=0;orthogonalLoop=1;jettySize=auto;html=1;entryX=0.5;entryY=0;entryDx=0;entryDy=0;exitX=0;exitY=0.5;exitDx=0;exitDy=0;" edge="1" parent="WIyWlLk6GJQsqaUBKTNV-1" source="eSKBagSOQ1Uar_kstjLn-4" target="eSKBagSOQ1Uar_kstjLn-9">
          <mxGeometry relative="1" as="geometry">
            <mxPoint x="-280" y="500" as="targetPoint" />
          </mxGeometry>
        </mxCell>
        <mxCell id="eSKBagSOQ1Uar_kstjLn-23" value="&lt;font style=&quot;font-size: 24px;&quot;&gt;Yes&lt;/font&gt;" style="edgeLabel;html=1;align=center;verticalAlign=middle;resizable=0;points=[];" vertex="1" connectable="0" parent="eSKBagSOQ1Uar_kstjLn-7">
          <mxGeometry x="-0.5467" relative="1" as="geometry">
            <mxPoint as="offset" />
          </mxGeometry>
        </mxCell>
        <mxCell id="eSKBagSOQ1Uar_kstjLn-15" style="edgeStyle=orthogonalEdgeStyle;rounded=0;orthogonalLoop=1;jettySize=auto;html=1;entryX=0.5;entryY=0;entryDx=0;entryDy=0;exitX=1;exitY=0.5;exitDx=0;exitDy=0;" edge="1" parent="WIyWlLk6GJQsqaUBKTNV-1" source="eSKBagSOQ1Uar_kstjLn-4" target="eSKBagSOQ1Uar_kstjLn-25">
          <mxGeometry relative="1" as="geometry">
            <mxPoint x="120" y="460" as="targetPoint" />
          </mxGeometry>
        </mxCell>
        <mxCell id="eSKBagSOQ1Uar_kstjLn-22" value="&lt;font style=&quot;font-size: 24px;&quot;&gt;No&lt;/font&gt;" style="edgeLabel;html=1;align=center;verticalAlign=middle;resizable=0;points=[];" vertex="1" connectable="0" parent="eSKBagSOQ1Uar_kstjLn-15">
          <mxGeometry x="-0.5121" relative="1" as="geometry">
            <mxPoint as="offset" />
          </mxGeometry>
        </mxCell>
        <mxCell id="eSKBagSOQ1Uar_kstjLn-4" value="&lt;div&gt;Did you upload a&amp;nbsp;&lt;/div&gt;&lt;div&gt;completely new&lt;/div&gt;&lt;div&gt;wordlist?&lt;/div&gt;" style="rhombus;whiteSpace=wrap;html=1;" vertex="1" parent="WIyWlLk6GJQsqaUBKTNV-1">
          <mxGeometry x="-360" y="310" width="160" height="160" as="geometry" />
        </mxCell>
        <mxCell id="eSKBagSOQ1Uar_kstjLn-9" value="Use the syntax:&lt;br&gt;&lt;font face=&quot;Courier New&quot;&gt;feat(wordlist): Added &quot;WORDLIST_NAME_HERE&quot; by AUTHOR_NAME_HERE&lt;br&gt;&lt;/font&gt;" style="rounded=1;whiteSpace=wrap;html=1;" vertex="1" parent="WIyWlLk6GJQsqaUBKTNV-1">
          <mxGeometry x="-750" y="500" width="460" height="60" as="geometry" />
        </mxCell>
        <mxCell id="eSKBagSOQ1Uar_kstjLn-31" style="edgeStyle=orthogonalEdgeStyle;rounded=0;orthogonalLoop=1;jettySize=auto;html=1;entryX=0.5;entryY=0;entryDx=0;entryDy=0;exitX=0;exitY=0.5;exitDx=0;exitDy=0;" edge="1" parent="WIyWlLk6GJQsqaUBKTNV-1" source="eSKBagSOQ1Uar_kstjLn-14" target="eSKBagSOQ1Uar_kstjLn-30">
          <mxGeometry relative="1" as="geometry">
            <mxPoint x="133.00000000000045" y="835" as="targetPoint" />
          </mxGeometry>
        </mxCell>
        <mxCell id="eSKBagSOQ1Uar_kstjLn-32" value="&lt;font style=&quot;font-size: 24px;&quot;&gt;Yes&lt;/font&gt;" style="edgeLabel;html=1;align=center;verticalAlign=middle;resizable=0;points=[];" vertex="1" connectable="0" parent="eSKBagSOQ1Uar_kstjLn-31">
          <mxGeometry x="-0.1683" y="4" relative="1" as="geometry">
            <mxPoint x="14" y="-4" as="offset" />
          </mxGeometry>
        </mxCell>
        <mxCell id="eSKBagSOQ1Uar_kstjLn-35" style="edgeStyle=orthogonalEdgeStyle;rounded=0;orthogonalLoop=1;jettySize=auto;html=1;entryX=0.5;entryY=0;entryDx=0;entryDy=0;exitX=1;exitY=0.5;exitDx=0;exitDy=0;" edge="1" parent="WIyWlLk6GJQsqaUBKTNV-1" source="eSKBagSOQ1Uar_kstjLn-14" target="eSKBagSOQ1Uar_kstjLn-33">
          <mxGeometry relative="1" as="geometry" />
        </mxCell>
        <mxCell id="eSKBagSOQ1Uar_kstjLn-36" value="&lt;font style=&quot;font-size: 24px;&quot;&gt;No&lt;/font&gt;" style="edgeLabel;html=1;align=center;verticalAlign=middle;resizable=0;points=[];" vertex="1" connectable="0" parent="eSKBagSOQ1Uar_kstjLn-35">
          <mxGeometry x="-0.4483" y="-2" relative="1" as="geometry">
            <mxPoint x="-16" y="-2" as="offset" />
          </mxGeometry>
        </mxCell>
        <mxCell id="eSKBagSOQ1Uar_kstjLn-14" value="Did you fix an error/mistake/oversight in an existing wordlist?" style="rhombus;whiteSpace=wrap;html=1;" vertex="1" parent="WIyWlLk6GJQsqaUBKTNV-1">
          <mxGeometry x="290" y="680" width="150" height="155" as="geometry" />
        </mxCell>
        <mxCell id="eSKBagSOQ1Uar_kstjLn-26" style="edgeStyle=orthogonalEdgeStyle;rounded=0;orthogonalLoop=1;jettySize=auto;html=1;entryX=0.5;entryY=0;entryDx=0;entryDy=0;exitX=0;exitY=0.5;exitDx=0;exitDy=0;" edge="1" parent="WIyWlLk6GJQsqaUBKTNV-1" source="eSKBagSOQ1Uar_kstjLn-25" target="eSKBagSOQ1Uar_kstjLn-80">
          <mxGeometry relative="1" as="geometry">
            <mxPoint x="-230" y="560" as="targetPoint" />
          </mxGeometry>
        </mxCell>
        <mxCell id="eSKBagSOQ1Uar_kstjLn-27" value="&lt;font style=&quot;font-size: 24px;&quot;&gt;Yes&lt;/font&gt;" style="edgeLabel;html=1;align=center;verticalAlign=middle;resizable=0;points=[];" vertex="1" connectable="0" parent="eSKBagSOQ1Uar_kstjLn-26">
          <mxGeometry x="-0.3943" y="4" relative="1" as="geometry">
            <mxPoint x="2" y="-4" as="offset" />
          </mxGeometry>
        </mxCell>
        <mxCell id="eSKBagSOQ1Uar_kstjLn-28" style="edgeStyle=orthogonalEdgeStyle;rounded=0;orthogonalLoop=1;jettySize=auto;html=1;entryX=0.5;entryY=0;entryDx=0;entryDy=0;exitX=1;exitY=0.5;exitDx=0;exitDy=0;" edge="1" parent="WIyWlLk6GJQsqaUBKTNV-1" source="eSKBagSOQ1Uar_kstjLn-25" target="eSKBagSOQ1Uar_kstjLn-14">
          <mxGeometry relative="1" as="geometry" />
        </mxCell>
        <mxCell id="eSKBagSOQ1Uar_kstjLn-29" value="&lt;font style=&quot;font-size: 24px;&quot;&gt;No&lt;/font&gt;" style="edgeLabel;html=1;align=center;verticalAlign=middle;resizable=0;points=[];" vertex="1" connectable="0" parent="eSKBagSOQ1Uar_kstjLn-28">
          <mxGeometry x="-0.4" relative="1" as="geometry">
            <mxPoint x="-7" as="offset" />
          </mxGeometry>
        </mxCell>
        <mxCell id="eSKBagSOQ1Uar_kstjLn-25" value="&lt;div&gt;Did you add&amp;nbsp;&lt;/div&gt;&lt;div&gt;completely new&amp;nbsp;&lt;/div&gt;&lt;div&gt;content to an existing wordlist?&lt;/div&gt;" style="rhombus;whiteSpace=wrap;html=1;" vertex="1" parent="WIyWlLk6GJQsqaUBKTNV-1">
          <mxGeometry x="-30" y="520" width="150" height="150" as="geometry" />
        </mxCell>
        <mxCell id="eSKBagSOQ1Uar_kstjLn-30" value="Use the syntax:&lt;br&gt;&lt;div align=&quot;left&quot;&gt;&lt;font face=&quot;Courier New&quot;&gt;fix(wordlist): Fixed _____ in &quot;WORDLIST_NAME_HERE&quot;&lt;/font&gt;&lt;br&gt;&lt;font face=&quot;Courier New&quot;&gt;fix(wordlist): Removed _____ from &quot;WORDLIST_NAME_HERE&quot;&lt;/font&gt;&lt;/div&gt;" style="rounded=1;whiteSpace=wrap;html=1;" vertex="1" parent="WIyWlLk6GJQsqaUBKTNV-1">
          <mxGeometry x="-100" y="865" width="446" height="95" as="geometry" />
        </mxCell>
        <mxCell id="eSKBagSOQ1Uar_kstjLn-38" style="edgeStyle=orthogonalEdgeStyle;rounded=0;orthogonalLoop=1;jettySize=auto;html=1;entryX=0.5;entryY=0;entryDx=0;entryDy=0;exitX=1;exitY=0.5;exitDx=0;exitDy=0;" edge="1" parent="WIyWlLk6GJQsqaUBKTNV-1" source="eSKBagSOQ1Uar_kstjLn-33" target="eSKBagSOQ1Uar_kstjLn-37">
          <mxGeometry relative="1" as="geometry" />
        </mxCell>
        <mxCell id="eSKBagSOQ1Uar_kstjLn-42" value="&lt;font style=&quot;font-size: 24px;&quot;&gt;No&lt;/font&gt;" style="edgeLabel;html=1;align=center;verticalAlign=middle;resizable=0;points=[];" vertex="1" connectable="0" parent="eSKBagSOQ1Uar_kstjLn-38">
          <mxGeometry x="-0.6193" y="-2" relative="1" as="geometry">
            <mxPoint as="offset" />
          </mxGeometry>
        </mxCell>
        <mxCell id="eSKBagSOQ1Uar_kstjLn-40" style="edgeStyle=orthogonalEdgeStyle;rounded=0;orthogonalLoop=1;jettySize=auto;html=1;entryX=0.5;entryY=0;entryDx=0;entryDy=0;exitX=0;exitY=0.5;exitDx=0;exitDy=0;" edge="1" parent="WIyWlLk6GJQsqaUBKTNV-1" source="eSKBagSOQ1Uar_kstjLn-33" target="eSKBagSOQ1Uar_kstjLn-39">
          <mxGeometry relative="1" as="geometry" />
        </mxCell>
        <mxCell id="eSKBagSOQ1Uar_kstjLn-41" value="&lt;font style=&quot;font-size: 24px;&quot;&gt;Yes&lt;br&gt;&lt;/font&gt;" style="edgeLabel;html=1;align=center;verticalAlign=middle;resizable=0;points=[];" vertex="1" connectable="0" parent="eSKBagSOQ1Uar_kstjLn-40">
          <mxGeometry x="-0.5198" y="1" relative="1" as="geometry">
            <mxPoint x="27" y="-1" as="offset" />
          </mxGeometry>
        </mxCell>
        <mxCell id="eSKBagSOQ1Uar_kstjLn-33" value="&lt;div&gt;Did you perform a big operation&lt;/div&gt;&lt;div&gt;wich affects all wordlists&amp;nbsp;&lt;/div&gt;&lt;div&gt;in a minor way?&lt;/div&gt;&lt;div&gt;For example:&amp;nbsp;&lt;/div&gt;&lt;div&gt;- Moving all wordlists from one&amp;nbsp;&lt;/div&gt;&lt;div&gt;directory to a new one&lt;/div&gt;&lt;div&gt;- Changing the line-endings of&lt;/div&gt;&lt;div&gt;all wordlists&lt;br&gt;&lt;/div&gt;" style="rhombus;whiteSpace=wrap;html=1;" vertex="1" parent="WIyWlLk6GJQsqaUBKTNV-1">
          <mxGeometry x="517" y="785" width="310" height="300" as="geometry" />
        </mxCell>
        <mxCell id="eSKBagSOQ1Uar_kstjLn-37" value="&lt;div align=&quot;center&quot;&gt;Ask a project-maintainer which commit type you should use.&lt;/div&gt;" style="rounded=1;whiteSpace=wrap;html=1;align=center;" vertex="1" parent="WIyWlLk6GJQsqaUBKTNV-1">
          <mxGeometry x="820" y="1125" width="190" height="60" as="geometry" />
        </mxCell>
        <mxCell id="eSKBagSOQ1Uar_kstjLn-39" value="Use the syntax:&lt;br&gt;&lt;font face=&quot;Courier New&quot;&gt;chore(wordlist): _____&lt;br&gt;&lt;/font&gt;" style="rounded=1;whiteSpace=wrap;html=1;" vertex="1" parent="WIyWlLk6GJQsqaUBKTNV-1">
          <mxGeometry x="330" y="1125" width="220" height="60" as="geometry" />
        </mxCell>
        <mxCell id="eSKBagSOQ1Uar_kstjLn-49" style="edgeStyle=orthogonalEdgeStyle;rounded=0;orthogonalLoop=1;jettySize=auto;html=1;entryX=0.5;entryY=0;entryDx=0;entryDy=0;exitX=0;exitY=0.5;exitDx=0;exitDy=0;" edge="1" parent="WIyWlLk6GJQsqaUBKTNV-1" source="eSKBagSOQ1Uar_kstjLn-43" target="eSKBagSOQ1Uar_kstjLn-47">
          <mxGeometry relative="1" as="geometry" />
        </mxCell>
        <mxCell id="eSKBagSOQ1Uar_kstjLn-50" value="&lt;font style=&quot;font-size: 24px;&quot;&gt;Yes&lt;/font&gt;" style="edgeLabel;html=1;align=center;verticalAlign=middle;resizable=0;points=[];" vertex="1" connectable="0" parent="eSKBagSOQ1Uar_kstjLn-49">
          <mxGeometry x="-0.7108" y="2" relative="1" as="geometry">
            <mxPoint x="-11" y="-2" as="offset" />
          </mxGeometry>
        </mxCell>
        <mxCell id="eSKBagSOQ1Uar_kstjLn-53" style="edgeStyle=orthogonalEdgeStyle;rounded=0;orthogonalLoop=1;jettySize=auto;html=1;entryX=0.5;entryY=0;entryDx=0;entryDy=0;exitX=1;exitY=0.5;exitDx=0;exitDy=0;" edge="1" parent="WIyWlLk6GJQsqaUBKTNV-1" source="eSKBagSOQ1Uar_kstjLn-43" target="eSKBagSOQ1Uar_kstjLn-64">
          <mxGeometry relative="1" as="geometry" />
        </mxCell>
        <mxCell id="eSKBagSOQ1Uar_kstjLn-54" value="&lt;font style=&quot;font-size: 24px;&quot;&gt;No&lt;/font&gt;" style="edgeLabel;html=1;align=center;verticalAlign=middle;resizable=0;points=[];" vertex="1" connectable="0" parent="eSKBagSOQ1Uar_kstjLn-53">
          <mxGeometry x="-0.6533" y="2" relative="1" as="geometry">
            <mxPoint x="-3" y="2" as="offset" />
          </mxGeometry>
        </mxCell>
        <mxCell id="eSKBagSOQ1Uar_kstjLn-43" value="Did you create a new README file?" style="rhombus;whiteSpace=wrap;html=1;" vertex="1" parent="WIyWlLk6GJQsqaUBKTNV-1">
          <mxGeometry x="1210" y="460" width="160" height="150" as="geometry" />
        </mxCell>
        <mxCell id="eSKBagSOQ1Uar_kstjLn-47" value="Use the syntax:&lt;br&gt;&lt;font face=&quot;Lucida Console&quot;&gt;feat(docs): Created documentation for ______&lt;/font&gt;" style="rounded=1;whiteSpace=wrap;html=1;" vertex="1" parent="WIyWlLk6GJQsqaUBKTNV-1">
          <mxGeometry x="940" y="640" width="343" height="60" as="geometry" />
        </mxCell>
        <mxCell id="eSKBagSOQ1Uar_kstjLn-56" style="edgeStyle=orthogonalEdgeStyle;rounded=0;orthogonalLoop=1;jettySize=auto;html=1;entryX=0.5;entryY=0;entryDx=0;entryDy=0;exitX=0;exitY=0.5;exitDx=0;exitDy=0;" edge="1" parent="WIyWlLk6GJQsqaUBKTNV-1" source="eSKBagSOQ1Uar_kstjLn-52" target="eSKBagSOQ1Uar_kstjLn-55">
          <mxGeometry relative="1" as="geometry" />
        </mxCell>
        <mxCell id="eSKBagSOQ1Uar_kstjLn-57" value="&lt;font style=&quot;font-size: 24px;&quot;&gt;Yes&lt;/font&gt;" style="edgeLabel;html=1;align=center;verticalAlign=middle;resizable=0;points=[];" vertex="1" connectable="0" parent="eSKBagSOQ1Uar_kstjLn-56">
          <mxGeometry x="-0.5394" y="3" relative="1" as="geometry">
            <mxPoint as="offset" />
          </mxGeometry>
        </mxCell>
        <mxCell id="eSKBagSOQ1Uar_kstjLn-59" style="edgeStyle=orthogonalEdgeStyle;rounded=0;orthogonalLoop=1;jettySize=auto;html=1;entryX=0.5;entryY=0;entryDx=0;entryDy=0;" edge="1" parent="WIyWlLk6GJQsqaUBKTNV-1" source="eSKBagSOQ1Uar_kstjLn-52" target="eSKBagSOQ1Uar_kstjLn-58">
          <mxGeometry relative="1" as="geometry" />
        </mxCell>
        <mxCell id="eSKBagSOQ1Uar_kstjLn-76" value="&lt;font style=&quot;font-size: 24px;&quot;&gt;No&lt;/font&gt;" style="edgeLabel;html=1;align=center;verticalAlign=middle;resizable=0;points=[];" vertex="1" connectable="0" parent="eSKBagSOQ1Uar_kstjLn-59">
          <mxGeometry x="-0.4016" y="1" relative="1" as="geometry">
            <mxPoint as="offset" />
          </mxGeometry>
        </mxCell>
        <mxCell id="eSKBagSOQ1Uar_kstjLn-52" value="&lt;div&gt;Did you add new&amp;nbsp;&lt;/div&gt;&lt;div&gt;content to an existing README?&lt;/div&gt;" style="rhombus;whiteSpace=wrap;html=1;" vertex="1" parent="WIyWlLk6GJQsqaUBKTNV-1">
          <mxGeometry x="1750" y="790" width="150" height="160" as="geometry" />
        </mxCell>
        <mxCell id="eSKBagSOQ1Uar_kstjLn-55" value="Use the syntax:&lt;br&gt;&lt;font face=&quot;Lucida Console&quot;&gt;feat(docs): Added documentation for ______&lt;/font&gt;" style="rounded=1;whiteSpace=wrap;html=1;" vertex="1" parent="WIyWlLk6GJQsqaUBKTNV-1">
          <mxGeometry x="1480" y="1000" width="340" height="60" as="geometry" />
        </mxCell>
        <mxCell id="eSKBagSOQ1Uar_kstjLn-62" style="edgeStyle=orthogonalEdgeStyle;rounded=0;orthogonalLoop=1;jettySize=auto;html=1;exitX=0;exitY=0.5;exitDx=0;exitDy=0;" edge="1" parent="WIyWlLk6GJQsqaUBKTNV-1" source="eSKBagSOQ1Uar_kstjLn-58" target="eSKBagSOQ1Uar_kstjLn-61">
          <mxGeometry relative="1" as="geometry" />
        </mxCell>
        <mxCell id="eSKBagSOQ1Uar_kstjLn-63" value="&lt;font style=&quot;font-size: 24px;&quot;&gt;Yes&lt;/font&gt;" style="edgeLabel;html=1;align=center;verticalAlign=middle;resizable=0;points=[];" vertex="1" connectable="0" parent="eSKBagSOQ1Uar_kstjLn-62">
          <mxGeometry x="-0.5718" y="-2" relative="1" as="geometry">
            <mxPoint x="8" y="2" as="offset" />
          </mxGeometry>
        </mxCell>
        <mxCell id="eSKBagSOQ1Uar_kstjLn-78" style="edgeStyle=orthogonalEdgeStyle;rounded=0;orthogonalLoop=1;jettySize=auto;html=1;entryX=0.5;entryY=0;entryDx=0;entryDy=0;exitX=1;exitY=0.5;exitDx=0;exitDy=0;" edge="1" parent="WIyWlLk6GJQsqaUBKTNV-1" source="eSKBagSOQ1Uar_kstjLn-58" target="eSKBagSOQ1Uar_kstjLn-77">
          <mxGeometry relative="1" as="geometry" />
        </mxCell>
        <mxCell id="eSKBagSOQ1Uar_kstjLn-79" value="&lt;font style=&quot;font-size: 24px;&quot;&gt;No&lt;/font&gt;" style="edgeLabel;html=1;align=center;verticalAlign=middle;resizable=0;points=[];" vertex="1" connectable="0" parent="eSKBagSOQ1Uar_kstjLn-78">
          <mxGeometry x="-0.6682" relative="1" as="geometry">
            <mxPoint as="offset" />
          </mxGeometry>
        </mxCell>
        <mxCell id="eSKBagSOQ1Uar_kstjLn-58" value="&lt;div&gt;Did you fix incorrect information in a&amp;nbsp;&lt;/div&gt;&lt;div&gt;README?&lt;/div&gt;" style="rhombus;whiteSpace=wrap;html=1;" vertex="1" parent="WIyWlLk6GJQsqaUBKTNV-1">
          <mxGeometry x="2000" y="970" width="150" height="150" as="geometry" />
        </mxCell>
        <mxCell id="eSKBagSOQ1Uar_kstjLn-61" value="Use the syntax:&lt;br&gt;&lt;font face=&quot;Courier New&quot;&gt;fix(docs): Corrected _____&lt;/font&gt;" style="rounded=1;whiteSpace=wrap;html=1;" vertex="1" parent="WIyWlLk6GJQsqaUBKTNV-1">
          <mxGeometry x="1800" y="1170" width="200" height="60" as="geometry" />
        </mxCell>
        <mxCell id="eSKBagSOQ1Uar_kstjLn-66" style="edgeStyle=orthogonalEdgeStyle;rounded=0;orthogonalLoop=1;jettySize=auto;html=1;entryX=0.5;entryY=0;entryDx=0;entryDy=0;exitX=0;exitY=0.5;exitDx=0;exitDy=0;" edge="1" parent="WIyWlLk6GJQsqaUBKTNV-1" source="eSKBagSOQ1Uar_kstjLn-64" target="eSKBagSOQ1Uar_kstjLn-65">
          <mxGeometry relative="1" as="geometry" />
        </mxCell>
        <mxCell id="eSKBagSOQ1Uar_kstjLn-67" value="&lt;font style=&quot;font-size: 24px;&quot;&gt;Yes&lt;br&gt;&lt;/font&gt;" style="edgeLabel;html=1;align=center;verticalAlign=middle;resizable=0;points=[];" vertex="1" connectable="0" parent="eSKBagSOQ1Uar_kstjLn-66">
          <mxGeometry x="-0.3843" y="3" relative="1" as="geometry">
            <mxPoint x="32" y="-3" as="offset" />
          </mxGeometry>
        </mxCell>
        <mxCell id="eSKBagSOQ1Uar_kstjLn-74" style="edgeStyle=orthogonalEdgeStyle;rounded=0;orthogonalLoop=1;jettySize=auto;html=1;entryX=0.5;entryY=0;entryDx=0;entryDy=0;exitX=1;exitY=0.5;exitDx=0;exitDy=0;" edge="1" parent="WIyWlLk6GJQsqaUBKTNV-1" source="eSKBagSOQ1Uar_kstjLn-64" target="eSKBagSOQ1Uar_kstjLn-52">
          <mxGeometry relative="1" as="geometry" />
        </mxCell>
        <mxCell id="eSKBagSOQ1Uar_kstjLn-75" value="&lt;font style=&quot;font-size: 24px;&quot;&gt;No&lt;/font&gt;" style="edgeLabel;html=1;align=center;verticalAlign=middle;resizable=0;points=[];" vertex="1" connectable="0" parent="eSKBagSOQ1Uar_kstjLn-74">
          <mxGeometry x="-0.5413" y="1" relative="1" as="geometry">
            <mxPoint x="1" as="offset" />
          </mxGeometry>
        </mxCell>
        <mxCell id="eSKBagSOQ1Uar_kstjLn-64" value="Did you fix a typo?&lt;br&gt;&lt;div&gt; Did you improve the&lt;/div&gt;&lt;div&gt;phrasing of a README?&lt;/div&gt;" style="rhombus;whiteSpace=wrap;html=1;" vertex="1" parent="WIyWlLk6GJQsqaUBKTNV-1">
          <mxGeometry x="1460" y="585" width="190" height="190" as="geometry" />
        </mxCell>
        <mxCell id="eSKBagSOQ1Uar_kstjLn-65" value="Use the syntax:&lt;br&gt;&lt;div align=&quot;left&quot;&gt;&lt;font face=&quot;Courier New&quot;&gt;chore(docs): Fixed typo for _____ docs&lt;br&gt;&lt;/font&gt;&lt;/div&gt;&lt;div align=&quot;left&quot;&gt;&lt;font face=&quot;Courier New&quot;&gt;chore(docs): Improved phrasing in ____ docs&lt;br&gt;&lt;/font&gt;&lt;/div&gt;" style="rounded=1;whiteSpace=wrap;html=1;" vertex="1" parent="WIyWlLk6GJQsqaUBKTNV-1">
          <mxGeometry x="1200" y="800" width="349" height="60" as="geometry" />
        </mxCell>
        <mxCell id="eSKBagSOQ1Uar_kstjLn-77" value="&lt;div align=&quot;center&quot;&gt;Ask a project-maintainer which commit type you should use.&lt;/div&gt;" style="rounded=1;whiteSpace=wrap;html=1;align=center;" vertex="1" parent="WIyWlLk6GJQsqaUBKTNV-1">
          <mxGeometry x="2150" y="1170" width="200" height="60" as="geometry" />
        </mxCell>
        <mxCell id="eSKBagSOQ1Uar_kstjLn-80" value="Use the syntax:&lt;br&gt;&lt;font face=&quot;Courier New&quot;&gt;feat(wordlist): Added _____ to &quot;&lt;/font&gt;&lt;font face=&quot;Courier New&quot;&gt;WORDLIST_NAME_HERE&lt;/font&gt;&lt;font face=&quot;Courier New&quot;&gt;&quot;&lt;br&gt;&lt;/font&gt;" style="rounded=1;whiteSpace=wrap;html=1;" vertex="1" parent="WIyWlLk6GJQsqaUBKTNV-1">
          <mxGeometry x="-430" y="710" width="460" height="60" as="geometry" />
        </mxCell>
        <mxCell id="eSKBagSOQ1Uar_kstjLn-83" value="&lt;div align=&quot;center&quot;&gt;Ask a project-maintainer which commit type you should use.&lt;/div&gt;" style="rounded=1;whiteSpace=wrap;html=1;align=center;" vertex="1" parent="WIyWlLk6GJQsqaUBKTNV-1">
          <mxGeometry x="3100" y="640" width="200" height="60" as="geometry" />
        </mxCell>
        <mxCell id="eSKBagSOQ1Uar_kstjLn-91" style="edgeStyle=orthogonalEdgeStyle;rounded=0;orthogonalLoop=1;jettySize=auto;html=1;entryX=0.5;entryY=0;entryDx=0;entryDy=0;exitX=0;exitY=0.5;exitDx=0;exitDy=0;" edge="1" parent="WIyWlLk6GJQsqaUBKTNV-1" source="eSKBagSOQ1Uar_kstjLn-87" target="eSKBagSOQ1Uar_kstjLn-90">
          <mxGeometry relative="1" as="geometry" />
        </mxCell>
        <mxCell id="eSKBagSOQ1Uar_kstjLn-92" value="&lt;font style=&quot;font-size: 24px;&quot;&gt;Yes&lt;/font&gt;" style="edgeLabel;html=1;align=center;verticalAlign=middle;resizable=0;points=[];" vertex="1" connectable="0" parent="eSKBagSOQ1Uar_kstjLn-91">
          <mxGeometry x="-0.4625" y="2" relative="1" as="geometry">
            <mxPoint x="6" y="-2" as="offset" />
          </mxGeometry>
        </mxCell>
        <mxCell id="eSKBagSOQ1Uar_kstjLn-94" style="edgeStyle=orthogonalEdgeStyle;rounded=0;orthogonalLoop=1;jettySize=auto;html=1;entryX=0.5;entryY=0;entryDx=0;entryDy=0;exitX=1;exitY=0.5;exitDx=0;exitDy=0;" edge="1" parent="WIyWlLk6GJQsqaUBKTNV-1" source="eSKBagSOQ1Uar_kstjLn-87" target="eSKBagSOQ1Uar_kstjLn-93">
          <mxGeometry relative="1" as="geometry" />
        </mxCell>
        <mxCell id="eSKBagSOQ1Uar_kstjLn-118" value="&lt;font style=&quot;font-size: 24px;&quot;&gt;No&lt;/font&gt;" style="edgeLabel;html=1;align=center;verticalAlign=middle;resizable=0;points=[];" vertex="1" connectable="0" parent="eSKBagSOQ1Uar_kstjLn-94">
          <mxGeometry x="-0.4615" relative="1" as="geometry">
            <mxPoint as="offset" />
          </mxGeometry>
        </mxCell>
        <mxCell id="eSKBagSOQ1Uar_kstjLn-87" value="Did you create a completely new automation?" style="rhombus;whiteSpace=wrap;html=1;" vertex="1" parent="WIyWlLk6GJQsqaUBKTNV-1">
          <mxGeometry x="2700" y="640" width="140" height="140" as="geometry" />
        </mxCell>
        <mxCell id="eSKBagSOQ1Uar_kstjLn-90" value="Use the syntax:&lt;br&gt;&lt;font face=&quot;Lucida Console&quot;&gt;feat(cicd): Created ______&lt;/font&gt;" style="rounded=1;whiteSpace=wrap;html=1;" vertex="1" parent="WIyWlLk6GJQsqaUBKTNV-1">
          <mxGeometry x="2481" y="800" width="279" height="60" as="geometry" />
        </mxCell>
        <mxCell id="eSKBagSOQ1Uar_kstjLn-99" style="edgeStyle=orthogonalEdgeStyle;rounded=0;orthogonalLoop=1;jettySize=auto;html=1;entryX=0.5;entryY=0;entryDx=0;entryDy=0;exitX=0;exitY=0.5;exitDx=0;exitDy=0;" edge="1" parent="WIyWlLk6GJQsqaUBKTNV-1" source="eSKBagSOQ1Uar_kstjLn-93" target="eSKBagSOQ1Uar_kstjLn-95">
          <mxGeometry relative="1" as="geometry" />
        </mxCell>
        <mxCell id="eSKBagSOQ1Uar_kstjLn-100" value="&lt;font style=&quot;font-size: 24px;&quot;&gt;Yes&lt;/font&gt;" style="edgeLabel;html=1;align=center;verticalAlign=middle;resizable=0;points=[];" vertex="1" connectable="0" parent="eSKBagSOQ1Uar_kstjLn-99">
          <mxGeometry x="-0.4769" y="-1" relative="1" as="geometry">
            <mxPoint as="offset" />
          </mxGeometry>
        </mxCell>
        <mxCell id="eSKBagSOQ1Uar_kstjLn-102" style="edgeStyle=orthogonalEdgeStyle;rounded=0;orthogonalLoop=1;jettySize=auto;html=1;" edge="1" parent="WIyWlLk6GJQsqaUBKTNV-1" source="eSKBagSOQ1Uar_kstjLn-93" target="eSKBagSOQ1Uar_kstjLn-101">
          <mxGeometry relative="1" as="geometry" />
        </mxCell>
        <mxCell id="eSKBagSOQ1Uar_kstjLn-119" value="&lt;font style=&quot;font-size: 24px;&quot;&gt;No&lt;/font&gt;" style="edgeLabel;html=1;align=center;verticalAlign=middle;resizable=0;points=[];" vertex="1" connectable="0" parent="eSKBagSOQ1Uar_kstjLn-102">
          <mxGeometry x="-0.6345" relative="1" as="geometry">
            <mxPoint as="offset" />
          </mxGeometry>
        </mxCell>
        <mxCell id="eSKBagSOQ1Uar_kstjLn-93" value="&lt;div&gt;Did you fix an error or&amp;nbsp;&lt;/div&gt;&lt;div&gt;fix a vulnerability in an&amp;nbsp;&lt;/div&gt;&lt;div&gt;existing automation?&lt;/div&gt;" style="rhombus;whiteSpace=wrap;html=1;" vertex="1" parent="WIyWlLk6GJQsqaUBKTNV-1">
          <mxGeometry x="2970" y="750" width="180" height="180" as="geometry" />
        </mxCell>
        <mxCell id="eSKBagSOQ1Uar_kstjLn-95" value="Use the syntax:&lt;br&gt;&lt;font face=&quot;Lucida Console&quot;&gt;fix(cicd): Fixed ______ in &quot;AUTOMATION_NAME_HERE&quot;&lt;br&gt;&lt;/font&gt;" style="rounded=1;whiteSpace=wrap;html=1;" vertex="1" parent="WIyWlLk6GJQsqaUBKTNV-1">
          <mxGeometry x="2650" y="970" width="390" height="60" as="geometry" />
        </mxCell>
        <mxCell id="eSKBagSOQ1Uar_kstjLn-98" value="&lt;div align=&quot;left&quot;&gt;For example:&lt;/div&gt;&lt;div align=&quot;left&quot;&gt;&lt;font face=&quot;Courier New&quot;&gt;&lt;br&gt;&lt;/font&gt;&lt;/div&gt;&lt;div align=&quot;left&quot;&gt;&lt;font face=&quot;Courier New&quot;&gt;fix(cicd): Fixed permissions error in &quot;trickest-wordlist auto-updater&quot;&lt;/font&gt;&lt;/div&gt;" style="shape=process;whiteSpace=wrap;html=1;backgroundOutline=1;align=left;" vertex="1" parent="WIyWlLk6GJQsqaUBKTNV-1">
          <mxGeometry x="2650" y="1040" width="390" height="80" as="geometry" />
        </mxCell>
        <mxCell id="eSKBagSOQ1Uar_kstjLn-104" style="edgeStyle=orthogonalEdgeStyle;rounded=0;orthogonalLoop=1;jettySize=auto;html=1;entryX=0.5;entryY=0;entryDx=0;entryDy=0;exitX=0;exitY=0.5;exitDx=0;exitDy=0;" edge="1" parent="WIyWlLk6GJQsqaUBKTNV-1" source="eSKBagSOQ1Uar_kstjLn-101" target="eSKBagSOQ1Uar_kstjLn-103">
          <mxGeometry relative="1" as="geometry" />
        </mxCell>
        <mxCell id="eSKBagSOQ1Uar_kstjLn-105" value="&lt;font style=&quot;font-size: 24px;&quot;&gt;Yes&lt;br&gt;&lt;/font&gt;" style="edgeLabel;html=1;align=center;verticalAlign=middle;resizable=0;points=[];" vertex="1" connectable="0" parent="eSKBagSOQ1Uar_kstjLn-104">
          <mxGeometry x="-0.704" relative="1" as="geometry">
            <mxPoint as="offset" />
          </mxGeometry>
        </mxCell>
        <mxCell id="eSKBagSOQ1Uar_kstjLn-108" style="edgeStyle=orthogonalEdgeStyle;rounded=0;orthogonalLoop=1;jettySize=auto;html=1;entryX=0.5;entryY=0;entryDx=0;entryDy=0;" edge="1" parent="WIyWlLk6GJQsqaUBKTNV-1" source="eSKBagSOQ1Uar_kstjLn-101" target="eSKBagSOQ1Uar_kstjLn-107">
          <mxGeometry relative="1" as="geometry" />
        </mxCell>
        <mxCell id="eSKBagSOQ1Uar_kstjLn-109" value="&lt;font style=&quot;font-size: 24px;&quot;&gt;No&lt;/font&gt;" style="edgeLabel;html=1;align=center;verticalAlign=middle;resizable=0;points=[];" vertex="1" connectable="0" parent="eSKBagSOQ1Uar_kstjLn-108">
          <mxGeometry x="-0.5161" y="-5" relative="1" as="geometry">
            <mxPoint as="offset" />
          </mxGeometry>
        </mxCell>
        <mxCell id="eSKBagSOQ1Uar_kstjLn-101" value="&lt;div&gt;Did you add&amp;nbsp;&lt;/div&gt;&lt;div&gt;a new feature&amp;nbsp;&lt;/div&gt;&lt;div&gt;to an existing&amp;nbsp;&lt;/div&gt;&lt;div&gt;automation?&lt;/div&gt;" style="rhombus;whiteSpace=wrap;html=1;" vertex="1" parent="WIyWlLk6GJQsqaUBKTNV-1">
          <mxGeometry x="3230" y="950" width="160" height="160" as="geometry" />
        </mxCell>
        <mxCell id="eSKBagSOQ1Uar_kstjLn-103" value="Use the syntax:&lt;br&gt;&lt;font face=&quot;Courier New&quot;&gt;feat(cicd): Added _____ to &quot;AUTOMATION_NAME_HERE&quot;&lt;/font&gt;" style="rounded=1;whiteSpace=wrap;html=1;" vertex="1" parent="WIyWlLk6GJQsqaUBKTNV-1">
          <mxGeometry x="2950" y="1180" width="360" height="60" as="geometry" />
        </mxCell>
        <mxCell id="eSKBagSOQ1Uar_kstjLn-106" value="&lt;div align=&quot;left&quot;&gt;For example:&lt;/div&gt;&lt;div align=&quot;left&quot;&gt;&lt;br&gt;&lt;/div&gt;&lt;div align=&quot;left&quot;&gt;&lt;font face=&quot;Courier New&quot;&gt;feat(cicd): Added a file size checker to &quot;dangerous_wordlist_checker.sh&quot;&lt;br&gt;&lt;/font&gt;&lt;/div&gt;" style="shape=process;whiteSpace=wrap;html=1;backgroundOutline=1;align=left;" vertex="1" parent="WIyWlLk6GJQsqaUBKTNV-1">
          <mxGeometry x="2950" y="1250" width="360" height="80" as="geometry" />
        </mxCell>
        <mxCell id="eSKBagSOQ1Uar_kstjLn-111" style="edgeStyle=orthogonalEdgeStyle;rounded=0;orthogonalLoop=1;jettySize=auto;html=1;entryX=0.5;entryY=0;entryDx=0;entryDy=0;exitX=0;exitY=0.5;exitDx=0;exitDy=0;" edge="1" parent="WIyWlLk6GJQsqaUBKTNV-1" source="eSKBagSOQ1Uar_kstjLn-107" target="eSKBagSOQ1Uar_kstjLn-110">
          <mxGeometry relative="1" as="geometry" />
        </mxCell>
        <mxCell id="eSKBagSOQ1Uar_kstjLn-115" value="&lt;font style=&quot;font-size: 24px;&quot;&gt;Yes&lt;/font&gt;" style="edgeLabel;html=1;align=center;verticalAlign=middle;resizable=0;points=[];" vertex="1" connectable="0" parent="eSKBagSOQ1Uar_kstjLn-111">
          <mxGeometry x="-0.6194" y="1" relative="1" as="geometry">
            <mxPoint as="offset" />
          </mxGeometry>
        </mxCell>
        <mxCell id="eSKBagSOQ1Uar_kstjLn-113" style="edgeStyle=orthogonalEdgeStyle;rounded=0;orthogonalLoop=1;jettySize=auto;html=1;entryX=0.5;entryY=0;entryDx=0;entryDy=0;exitX=1;exitY=0.5;exitDx=0;exitDy=0;" edge="1" parent="WIyWlLk6GJQsqaUBKTNV-1" source="eSKBagSOQ1Uar_kstjLn-107" target="eSKBagSOQ1Uar_kstjLn-112">
          <mxGeometry relative="1" as="geometry" />
        </mxCell>
        <mxCell id="eSKBagSOQ1Uar_kstjLn-114" value="&lt;font style=&quot;font-size: 24px;&quot;&gt;No&lt;/font&gt;" style="edgeLabel;html=1;align=center;verticalAlign=middle;resizable=0;points=[];" vertex="1" connectable="0" parent="eSKBagSOQ1Uar_kstjLn-113">
          <mxGeometry x="-0.4929" y="1" relative="1" as="geometry">
            <mxPoint x="-21" y="1" as="offset" />
          </mxGeometry>
        </mxCell>
        <mxCell id="eSKBagSOQ1Uar_kstjLn-107" value="Did you:&lt;br&gt;&lt;div&gt;- Fix a typo&lt;/div&gt;&lt;div&gt;- Move a file&lt;/div&gt;&lt;div&gt;- Add a code coment&lt;br&gt;&lt;/div&gt;" style="rhombus;whiteSpace=wrap;html=1;" vertex="1" parent="WIyWlLk6GJQsqaUBKTNV-1">
          <mxGeometry x="3520" y="1130" width="180" height="180" as="geometry" />
        </mxCell>
        <mxCell id="eSKBagSOQ1Uar_kstjLn-110" value="Use the syntax:&lt;br&gt;&lt;div align=&quot;left&quot;&gt;&lt;font face=&quot;Courier New&quot;&gt;chore(cicd): Fixed typo in &quot;AUTOMATION_NAME_HERE&quot;&lt;br&gt;&lt;/font&gt;&lt;/div&gt;&lt;div align=&quot;left&quot;&gt;&lt;font face=&quot;Courier New&quot;&gt;chore(cicd): Moved ______&lt;/font&gt;&lt;/div&gt;&lt;div align=&quot;left&quot;&gt;&lt;font face=&quot;Courier New&quot;&gt;chode(cicd): Added code comment to &quot;AUTOMATION_NAME_HERE&quot;&lt;br&gt;&lt;/font&gt;&lt;/div&gt;" style="rounded=1;whiteSpace=wrap;html=1;" vertex="1" parent="WIyWlLk6GJQsqaUBKTNV-1">
          <mxGeometry x="3180" y="1400" width="420" height="80" as="geometry" />
        </mxCell>
        <mxCell id="eSKBagSOQ1Uar_kstjLn-112" value="&lt;div align=&quot;center&quot;&gt;Ask a project-maintainer which commit type you should use.&lt;/div&gt;" style="rounded=1;whiteSpace=wrap;html=1;align=center;" vertex="1" parent="WIyWlLk6GJQsqaUBKTNV-1">
          <mxGeometry x="3700" y="1400" width="200" height="60" as="geometry" />
        </mxCell>
        <mxCell id="eSKBagSOQ1Uar_kstjLn-116" value="For example:&lt;br&gt;&lt;br&gt;&lt;div align=&quot;left&quot;&gt;&lt;font face=&quot;Courier New&quot;&gt;chore(wordlist): Moved all file-extension wordlists to /Fuzzing/File-Extensions/&lt;/font&gt;&lt;/div&gt;" style="shape=process;whiteSpace=wrap;html=1;backgroundOutline=1;" vertex="1" parent="WIyWlLk6GJQsqaUBKTNV-1">
          <mxGeometry x="330" y="1195" width="220" height="110" as="geometry" />
        </mxCell>
        <mxCell id="eSKBagSOQ1Uar_kstjLn-117" value="&lt;div&gt;For example:&lt;/div&gt;&lt;div&gt;&lt;br&gt;&lt;/div&gt;&lt;div align=&quot;left&quot;&gt;&lt;font face=&quot;Courier New&quot;&gt;fix(docs): Corrected author name for the raft.txt wordlist&lt;/font&gt;&lt;/div&gt;" style="shape=process;whiteSpace=wrap;html=1;backgroundOutline=1;" vertex="1" parent="WIyWlLk6GJQsqaUBKTNV-1">
          <mxGeometry x="1800" y="1240" width="200" height="90" as="geometry" />
        </mxCell>
      </root>
    </mxGraphModel>
  </diagram>
</mxfile>
